<svg xmlns="http://www.w3.org/2000/svg" viewBox="0 0 300 300"><g fill="#0846ad"><path d="M198.502 17.466c-8.181 0-14.837 6.656-14.837 14.837v22.305c-.748 10.316 4.487 15.778 10.235 16.786l.01 11.916c0 1.529.864 2.874 2.255 3.509a3.872 3.872 0 001.615.356c.903 0 1.792-.324 2.513-.948l15.167-13.135a6.283 6.283 0 014.112-1.533h27.524c8.181 0 14.837-6.656 14.837-14.837V32.303c0-8.181-6.656-14.837-14.837-14.837h-48.594zm59.415 14.837v24.418c0 5.967-4.854 10.821-10.821 10.821h-27.524c-2.477 0-4.871.893-6.741 2.513l-14.904 12.908-.011-12.263a3.207 3.207 0 00-2.852-3.195c-3.816-.419-8.041-3.989-7.388-12.673.004-.05.006-.1.006-.15V32.303c0-5.967 4.854-10.821 10.821-10.821h48.594c5.966.001 10.82 4.855 10.82 10.821zM128.349 269.231h-5.479a2.008 2.008 0 100 4.016h5.479a2.008 2.008 0 100-4.016zM140.404 269.231h-5.48a2.008 2.008 0 100 4.016h5.48a2.008 2.008 0 100-4.016zM128.349 262.687h-5.479a2.008 2.008 0 100 4.016h5.479a2.008 2.008 0 100-4.016zM140.404 262.687h-5.48a2.008 2.008 0 100 4.016h5.48a2.008 2.008 0 100-4.016z"/><path d="M64.081 164.646c2.843 1.7 6.059 2.545 9.993 2.545 1.951 0 4.103-.231 6.448-.645.423 3.968 3.024 7.141 6.348 7.815-.013.635-.044 1.248-.043 1.897l.042 15.183c.043 15.546 3.184 30.247 9.082 42.512 4.434 9.219 9.797 16.007 15.706 20.086v11.41c0 .068.003.136.01.204.828 8.118 8.698 16.88 19.969 16.88 10.988 0 19.61-8.971 19.98-17.084v-12.39c7.213-5.425 13.144-14.788 17.303-27.681 3.274-10.148 4.888-21.32 4.797-33.206l-.125-16.443c-.007-.424-.025-.826-.036-1.241 3.789-.137 6.895-3.491 7.408-7.818 2.097.342 4.022.52 5.796.52 3.934 0 7.151-.845 9.993-2.545 8.465-5.06 13.078-17.913 17.937-38.307.143.011.288.033.43.033a5.629 5.629 0 005.31-3.837 5.522 5.522 0 00-.946-5.28c3.785-3.404 4.282-7.617 1.574-13.069a2.007 2.007 0 00-2.692-.905 2.007 2.007 0 00-.906 2.691c2.142 4.314 1.74 6.715-1.689 9.131l-7.883-2.54c-1.165-3.991-.063-6.135 4.004-8.167a2.009 2.009 0 00-1.795-3.593c-5.201 2.598-7.292 6.189-6.452 11.151-1.868.373-3.491 1.684-4.183 3.669a5.513 5.513 0 00.271 4.308c.564 1.135 1.487 1.999 2.615 2.529-5.707 19.176-8.932 27.667-13.46 29.893-1.888.928-4.27.854-7.847-.274-.084-6.23-5.356-11.274-11.833-11.274h-7.655c-4.385-3.817-9.513-5.813-14.588-7.141-1.384-.362-3.004-.673-4.765-.934v-.441h18.037c14.828 0 26.891-13.537 26.891-30.176 0-14.721-9.444-27.006-21.889-29.645-.516-2.484-2.232-4.599-4.601-5.876-.686-.37-1.42-.675-2.202-.892.719-3.572 2.374-7.25 5.928-9.469a6.683 6.683 0 001.798 1.698 6.61 6.61 0 003.577 1.059c3.677 0 6.668-2.991 6.668-6.668s-2.991-6.668-6.668-6.668-6.668 2.991-6.668 6.668c0 .014.004.027.004.041-4.912 2.702-7.549 7.574-8.592 12.976-4.242.356-7.706 3.055-8.709 6.599H115.86c-.545-3.471-3.522-6.264-7.372-6.998V52.104c2.532-.847 4.374-3.214 4.374-6.027a6.39 6.39 0 00-6.382-6.382 6.39 6.39 0 00-6.382 6.382c0 2.814 1.842 5.181 4.374 6.028v12.834c-4.031.767-7.108 3.792-7.435 7.488-12.547 2.545-22.096 14.883-22.096 29.685 0 16.639 12.063 30.176 26.891 30.176h16.517v.371c-1.763.266-3.44.595-4.955 1.01-5.511 1.512-10.143 3.888-13.922 7.135h-7.176c-6.402 0-11.621 4.931-11.821 11.061-3.97 1.344-6.517 1.474-8.527.487-4.528-2.226-7.754-10.717-13.46-29.893a5.494 5.494 0 002.615-2.529c.673-1.352.769-2.882.247-4.376a5.506 5.506 0 00-4.159-3.605c.838-4.96-1.254-8.549-6.453-11.146a2.007 2.007 0 10-1.795 3.593c4.067 2.032 5.169 4.176 4.004 8.167l-7.883 2.54c-3.43-2.416-3.831-4.818-1.69-9.131a2.007 2.007 0 10-3.596-1.786c-2.708 5.452-2.212 9.664 1.574 13.069a5.572 5.572 0 00-.649.996c-.675 1.341-.78 2.862-.275 4.352.782 2.302 2.962 3.77 5.282 3.77.144 0 .29-.022.435-.034 4.858 20.393 9.471 33.247 17.936 38.307zm139.197-47.768a1.532 1.532 0 011.93-.96l10.433 3.361c.396.127.718.403.905.775.187.373.216.794.059 1.256a1.551 1.551 0 01-1.934.973l-10.433-3.361a1.533 1.533 0 01-.909-.782c-.186-.374-.212-.798-.051-1.262zm-22.229 39.4c3.296.903 6.596 1.162 9.612-.321 6.142-3.02 9.552-12.226 15.492-32.198l4.67 1.504c-5.321 22.308-9.746 32.12-16.128 35.935-3.367 2.014-7.619 2.465-13.645 1.403v-6.323zm-11.31-106.611c1.462 0 2.652 1.19 2.652 2.652s-1.19 2.652-2.652 2.652-2.652-1.19-2.652-2.652 1.19-2.652 2.652-2.652zm-38.102 228.85c-8.7 0-15.253-6.794-15.963-13.175v-8.994c3.041 1.413 6.192 2.162 9.416 2.162h10.439l.306.002c4.168 0 8.101-1.01 11.768-2.915l.001 9.759c-.274 5.962-7.457 13.161-15.967 13.161zm37.571-133.697c4.314 0 7.824 3.323 7.824 7.407v13.182c0 2.727-1.671 5.027-3.659 5.069-.832-12.135-3.86-20.185-8.056-25.658h3.891zM155.44 69.31c2.335 0 4.34 1.083 5.314 2.641-.173-.004-.344-.015-.517-.015h-10.101c.978-1.55 2.977-2.626 5.304-2.626zm-51.327-23.234c0-1.305 1.062-2.366 2.366-2.366s2.366 1.061 2.366 2.366c0 1.305-1.061 2.366-2.366 2.366s-2.366-1.061-2.366-2.366zm2.367 22.686c2.509 0 4.607 1.35 5.245 3.174h-9.893c-.203 0-.403.012-.605.017.631-1.832 2.735-3.191 5.253-3.191zm-4.648 59.51c-12.613 0-22.875-11.735-22.875-26.16s10.261-26.16 22.875-26.16h58.405c12.613 0 22.875 11.735 22.875 26.16s-10.261 26.16-22.875 26.16h-58.405zm36.351 4.016v2.654c0 2.717-3.622 5.013-7.909 5.013s-7.909-2.296-7.909-5.013v-2.654h15.818zm-23.726 5.254c1.252-.344 2.643-.623 4.111-.855 1.046 4.2 5.81 7.284 11.706 7.284 5.865 0 10.614-3.051 11.693-7.217 1.464.227 2.817.49 3.981.794 12.013 3.143 23.19 9.951 23.629 38.227l.125 16.427c.087 11.457-1.462 22.204-4.604 31.943-3.665 11.362-12.327 30.353-29.264 30.351-.097-.001-.201-.004-.294-.002h-10.451c-12.88 0-21.516-13.961-25.518-22.282-5.641-11.73-8.644-25.833-8.686-40.783l-.042-15.178c-.018-28.884 13.468-35.925 23.614-38.709zm-29.985 14.685c0-4.084 3.51-7.407 7.824-7.407h3.315c-4.981 6.196-7.81 14.633-8.558 25.389-1.476-.675-2.581-2.588-2.581-4.8v-13.182zm-40.265-30.984a1.53 1.53 0 01.082-1.188c.188-.372.509-.648.905-.775l10.433-3.361c.801-.259 1.651.162 1.954 1.028.138.395.111.82-.075 1.195a1.53 1.53 0 01-.909.782l-10.433 3.361c-.796.257-1.665-.179-1.957-1.042zm10.476 2.516c5.94 19.972 9.35 29.178 15.492 32.198 3.22 1.582 6.764 1.187 10.28.134v6.403c-6.396 1.222-10.819.794-14.314-1.295-6.382-3.815-10.808-13.627-16.128-35.935l4.67-1.505z"/><path d="M118.175 206.19h24.783c8.486 0 15.39-8.717 15.39-19.433s-6.904-19.433-15.39-19.433h-24.783c-8.486 0-15.39 8.717-15.39 19.433s6.904 19.433 15.39 19.433zm0-34.85h24.783c6.271 0 11.374 6.916 11.374 15.417s-5.103 15.417-11.374 15.417h-24.783c-6.271 0-11.374-6.916-11.374-15.417s5.103-15.417 11.374-15.417zM106.48 95.046c-4.12 0-7.472 3.352-7.472 7.472 0 4.12 3.352 7.471 7.472 7.471s7.471-3.351 7.471-7.471-3.351-7.472-7.471-7.472zm0 10.927a3.46 3.46 0 01-3.456-3.455c0-1.905 1.551-3.456 3.456-3.456s3.455 1.551 3.455 3.456a3.459 3.459 0 01-3.455 3.455zM155.59 95.046c-4.12 0-7.472 3.352-7.472 7.472 0 4.12 3.352 7.471 7.472 7.471s7.471-3.351 7.471-7.471-3.351-7.472-7.471-7.472zm0 10.927a3.46 3.46 0 01-3.456-3.455c0-1.905 1.551-3.456 3.456-3.456s3.455 1.551 3.455 3.456a3.459 3.459 0 01-3.455 3.455zM131.243 103.408c-5.854 0-9.943 3.702-9.943 9.002 0 1.109.899 2.008 2.008 2.008h15.87a2.008 2.008 0 002.008-2.008c0-5.3-4.088-9.002-9.943-9.002zm-5.528 6.994c.81-1.857 2.804-2.977 5.529-2.977s4.719 1.12 5.529 2.977h-11.058z"/><path d="M177.034 102.112c0-12.734-5.239-19.747-14.75-19.747h-62.5c-8.547 0-14.75 8.305-14.75 19.747 0 11.812 5.928 19.747 14.75 19.747h62.5c9.512 0 14.75-7.013 14.75-19.747zm-87.983 0c0-7.817 3.687-15.731 10.734-15.731h62.5c7.122 0 10.734 5.293 10.734 15.731 0 10.439-3.612 15.731-10.734 15.731h-62.5c-7.923 0-10.734-8.474-10.734-15.731zM208.964 31.661a7.991 7.991 0 00-7.676 2.694 2.007 2.007 0 103.07 2.588 3.975 3.975 0 013.815-1.345c.52.105 1.774.493 2.197 1.839.342 1.09.069 2.373-.731 3.433-.308.408-.638.796-.969 1.186-.914 1.079-1.966 2.323-2.684 4.044-.439 1.052-.754 2.282-.834 3.765a2.01 2.01 0 004.012.216c.138-2.558 1.211-3.825 2.57-5.428.381-.449.758-.896 1.112-1.364 1.58-2.094 2.087-4.731 1.358-7.055-.742-2.353-2.699-4.063-5.24-4.573zM208.812 54.688a1.669 1.669 0 00-.175-.348 2.79 2.79 0 00-.254-.308 1.358 1.358 0 00-.308-.241 1.25 1.25 0 00-.348-.187 1.749 1.749 0 00-.375-.121 2.014 2.014 0 00-2.249 1.205c-.041.12-.08.241-.107.375a1.895 1.895 0 000 .789c.027.121.067.254.107.375.054.12.12.227.187.348.08.107.161.201.255.295.375.375.897.589 1.418.589.134 0 .268-.014.388-.04.134-.027.254-.067.375-.107.12-.054.241-.121.348-.188a1.88 1.88 0 00.308-.254c.094-.094.175-.188.254-.295.067-.12.134-.227.175-.348.054-.121.093-.254.12-.375a2.013 2.013 0 000-.789 1.61 1.61 0 00-.119-.375zM224.054 31.661a7.995 7.995 0 00-7.676 2.694 2.01 2.01 0 00.241 2.83 2.004 2.004 0 001.875.385c.36-.109.694-.317.955-.626 1.122-1.331 2.705-1.566 3.815-1.345.52.105 1.774.492 2.197 1.839.342 1.09.069 2.373-.731 3.433-.308.408-.638.796-.969 1.186-.914 1.079-1.966 2.323-2.684 4.045-.439 1.052-.753 2.282-.833 3.765a2.01 2.01 0 004.012.216c.138-2.558 1.211-3.825 2.57-5.428.381-.449.758-.896 1.112-1.364 1.58-2.094 2.087-4.731 1.358-7.055-.742-2.355-2.701-4.065-5.242-4.575zM223.913 54.688a2.752 2.752 0 00-.188-.348 2.79 2.79 0 00-.254-.308 2.015 2.015 0 00-1.807-.549 1.767 1.767 0 00-.375.121c-.12.04-.241.107-.348.187a1.795 1.795 0 00-.308.241 1.667 1.667 0 00-.241.308 1.28 1.28 0 00-.188.348 1.895 1.895 0 00-.12 1.164c.027.121.067.254.12.375.041.12.107.227.188.348.067.107.147.201.241.295.093.093.201.188.308.254.107.067.227.134.348.188.12.04.241.08.375.107a2.003 2.003 0 001.807-.549c.094-.094.175-.188.254-.295.067-.12.134-.227.188-.348.041-.121.08-.254.107-.375a2.013 2.013 0 000-.789 3.052 3.052 0 00-.107-.375zM239.146 31.662a7.981 7.981 0 00-7.677 2.694 2.007 2.007 0 103.07 2.588c1.124-1.331 2.71-1.566 3.816-1.345.52.105 1.773.493 2.196 1.839.343 1.09.069 2.373-.731 3.433-.308.408-.638.796-.969 1.186-.914 1.079-1.966 2.323-2.684 4.045-.439 1.052-.753 2.282-.833 3.765a2.01 2.01 0 004.012.216c.138-2.558 1.211-3.825 2.57-5.428.381-.449.758-.896 1.112-1.364 1.58-2.093 2.087-4.731 1.357-7.055-.74-2.355-2.698-4.065-5.239-4.574zM239 54.688c-.054-.121-.107-.241-.188-.348-.067-.107-.16-.214-.241-.308a2.031 2.031 0 00-1.821-.549c-.12.027-.254.067-.375.121-.12.04-.241.107-.348.187a1.84 1.84 0 00-.309.241c-.08.093-.174.201-.241.308-.08.107-.134.227-.188.348-.054.12-.093.241-.107.375a2.013 2.013 0 000 .789c.014.121.054.254.107.375.054.12.107.227.188.348.067.107.147.201.241.295.094.093.201.188.309.254.107.067.227.134.348.188.12.04.254.08.375.107a2.03 2.03 0 001.821-.549c.08-.094.174-.188.241-.295.08-.12.134-.227.188-.348.054-.121.093-.254.12-.375a1.895 1.895 0 00-.12-1.164zM131.941 180.561a2.338 2.338 0 012.241-.792c.348.07.965.288 1.176.96.195.622.029 1.366-.445 1.994-.218.288-.451.562-.685.837-1.122 1.324-2.519 2.972-2.682 5.993a2.01 2.01 0 002.007 2.117 2.01 2.01 0 002.004-1.9c.09-1.672.78-2.486 1.735-3.613.284-.335.564-.667.826-1.015 1.254-1.66 1.655-3.761 1.071-5.617-.597-1.902-2.173-3.283-4.217-3.694a6.339 6.339 0 00-6.101 2.139 2.008 2.008 0 003.07 2.591zM133.013 193.232c-.12.027-.254.067-.375.107-.12.054-.227.12-.335.188a2.005 2.005 0 00-.308 3.092c.094.093.188.174.308.241.107.08.214.147.335.188.121.054.255.093.375.12.134.027.268.041.401.041.522 0 1.045-.214 1.419-.589a2.003 2.003 0 000-2.838 2.024 2.024 0 00-1.82-.55zM123.687 191.67a2.008 2.008 0 002.008-2.008v-11.945a2.008 2.008 0 10-4.016 0v11.945c0 1.11.899 2.008 2.008 2.008zM123.682 197.208c.134 0 .268-.014.402-.041.12-.027.254-.067.375-.12.121-.041.227-.107.348-.188.107-.067.201-.147.294-.241a2.003 2.003 0 000-2.838 2.552 2.552 0 00-.294-.254c-.121-.067-.227-.134-.348-.188a3.97 3.97 0 00-.375-.107 2.028 2.028 0 00-1.821.549 2.006 2.006 0 000 2.838c.375.376.898.59 1.419.59z"/></g></svg>
