<svg xmlns="http://www.w3.org/2000/svg" viewBox="0 0 300 300"><path fill="#f8f8fa" d="M49.921 198.981l5.854.043c1.408-26.08 8.321-34.939 14.269-37.613v-6.823c-11.529 2.875-19.109 19.462-20.123 44.393zM181.56 124.619c-1.2 25.113-9.946 27.953-15.208 29.649l-.115.038v6.394c10.337-1.609 20.848-11.814 21.251-36.039l-5.928-.042z"/><path fill="#f8f8fa" d="M135.504 75.807h11.086c.571 0 1.13.055 1.692.096-1.126-1.985-3.572-3.374-6.421-3.374-2.802 0-5.207 1.346-6.357 3.278z"/><circle cx="157.001" cy="55.327" r="3.595" fill="#ccc"/><path fill="#f8f8fa" d="M88.974 75.867c.355-.017.703-.06 1.062-.06h11.692c-1.151-1.932-3.556-3.278-6.357-3.278-2.831 0-5.262 1.373-6.397 3.338z"/><circle cx="80.231" cy="55.327" r="3.595" fill="#ccc"/><path fill="#f8f8fa" d="M189.768 117.813l-10.665-.077h-.016c-1.133 0-2.081.892-2.117 1.996-.018.616.184 1.139.569 1.539.4.416.944.648 1.531.652l10.665.077h.016c1.143 0 2.09-.899 2.117-2.013.014-.613-.19-1.132-.574-1.527a2.125 2.125 0 00-1.526-.647z"/><path fill="#0846ad" d="M191.901 115.656c2.781-4.169 2.144-7.996-1.961-12.199a1.339 1.339 0 00-1.914 1.872c3.497 3.58 3.773 6.283.94 9.801l-8.694-.063c-2.579-3.664-2.207-6.327 1.236-9.595a1.34 1.34 0 00.05-1.893 1.34 1.34 0 00-1.893-.05c-4.063 3.857-4.829 7.587-2.356 11.867-1.725.676-2.952 2.311-3.014 4.318a4.664 4.664 0 001.314 3.412 4.77 4.77 0 003.275 1.457c-1.079 22.207-8.128 25.412-12.758 26.943-.724-5.094-5.262-9.035-10.748-9.035h-7.031c-4.204-3.726-9.14-5.656-14.025-6.934-1.6-.419-3.536-.765-5.661-1.037v-1.486h17.929c14.024 0 25.433-12.836 25.433-28.614 0-13.949-8.922-25.581-20.68-28.095-.859-3.066-3.64-5.48-7.176-6.226.757-4.306 2.712-9.084 7.41-11.681 1.082 1.89 3.095 3.18 5.424 3.18 3.459 0 6.273-2.813 6.273-6.273s-2.813-6.273-6.273-6.273a6.28 6.28 0 00-6.273 6.273c0 .153.034.297.045.447-6.082 3.012-8.452 8.929-9.297 14.094-4.207.143-7.742 2.594-8.944 5.938h-27.834c-1.202-3.345-4.736-5.795-8.944-5.938-.844-5.165-3.215-11.082-9.297-14.094.011-.151.045-.294.045-.447a6.28 6.28 0 00-6.273-6.273c-3.459 0-6.273 2.813-6.273 6.273s2.813 6.273 6.273 6.273c2.33 0 4.343-1.291 5.424-3.18 4.697 2.597 6.652 7.375 7.41 11.681-3.493.737-6.249 3.102-7.143 6.116-12.07 2.223-21.319 14.006-21.319 28.205 0 15.778 11.409 28.614 25.433 28.614h16.741v1.585c-1.667.249-3.243.557-4.649.943-5.32 1.46-9.786 3.762-13.41 6.93h-7.814c-5.594 0-10.211 4.094-10.794 9.333-13.345 2.673-21.796 20.015-22.868 47.178a4.808 4.808 0 00-4.395 4.7 4.747 4.747 0 001.349 3.436c.38.392.824.692 1.298.929-2.777 4.216-2.15 8.085 1.931 12.333.263.275.613.412.965.412a1.338 1.338 0 00.965-2.266c-3.492-3.635-3.766-6.381-.938-9.953l8.629.064c2.577 3.722 2.207 6.427-1.232 9.746a1.34 1.34 0 001.86 1.927c4.042-3.902 4.798-7.674 2.326-12.002 1.723-.68 2.95-2.331 3.014-4.359a4.747 4.747 0 00-1.335-3.463 4.73 4.73 0 00-3.223-1.444c1.299-23.776 7.193-31.908 11.589-34.622v1.272c0 4.512 3.075 8.184 6.857 8.198-.02.766-.053 1.516-.053 2.305l.041 14.701c.041 14.961 3.062 29.107 8.734 40.906 4.154 8.637 9.146 15.046 14.633 18.961v11.798c0 .046.003.09.007.136.779 7.631 8.493 15.801 18.734 15.801 10.144 0 18.402-8.534 18.741-15.937v-11.807c9.378-6.541 14.726-18.83 17.42-27.181 3.149-9.763 4.701-20.518 4.615-31.962l-.122-15.917c-.01-.62-.032-1.216-.052-1.818 3.68-.154 6.638-3.761 6.638-8.185v-2.306c11.595-1.575 23.511-12.504 23.927-38.769 2.396-.209 4.324-2.172 4.382-4.656a4.674 4.674 0 00-1.331-3.385 4.755 4.755 0 00-1.313-.94zm-2.15 6.345h-.016l-10.665-.077a2.13 2.13 0 01-1.531-.652c-.384-.4-.587-.923-.569-1.539.035-1.105.983-1.996 2.117-1.996h.016l10.665.077a2.126 2.126 0 011.526.647c.384.395.588.914.574 1.527-.026 1.113-.974 2.013-2.117 2.013zm-54.689 140.518c-.282 6.16-7.362 13.321-16.065 13.321-8.766 0-15.365-6.879-16.063-13.33v-10.05c3.323 1.83 6.796 2.796 10.358 2.796h10.112l.301.001c4.268 0 8.033-1.068 11.356-2.842l.001 10.104zm-11.363-9.938c-.094 0-.193.003-.286-.001h-10.12c-12.803 0-21.319-13.732-25.255-21.919-5.501-11.441-8.431-25.187-8.47-39.753l-.041-14.699c-.013-21.604 7.394-33.699 23.31-38.066 1.233-.338 2.604-.613 4.051-.841.721 3.971 5.297 7.044 10.831 7.044 5.584 0 10.196-3.128 10.854-7.151 1.9.254 3.625.574 5.072.953 11.294 2.953 22.899 9.732 23.331 37.597l.122 15.906c.085 11.158-1.425 21.629-4.487 31.12-3.601 11.161-12.132 29.811-28.912 29.81zm-50.978-86.869v-12.765c0-4.288 3.67-7.777 8.181-7.777h5.172c-5.406 6.143-8.409 14.79-9.069 26.065h-.082c-2.316-.001-4.202-2.478-4.202-5.523zm17.315-87.228h56.553c12.548 0 22.756 11.635 22.756 25.936s-10.208 25.936-22.756 25.936H90.036c-12.548 0-22.756-11.635-22.756-25.936s10.208-25.936 22.756-25.936zm5.335-5.955c2.801 0 5.206 1.346 6.357 3.278H90.036c-.358 0-.707.044-1.062.06 1.135-1.965 3.566-3.338 6.397-3.338zm52.91 3.374c-.562-.042-1.121-.096-1.692-.096h-11.086c1.151-1.932 3.556-3.278 6.357-3.278 2.85 0 5.296 1.389 6.421 3.374zm-22.298 57.132v3.176c0 2.96-3.785 5.459-8.265 5.459-4.479 0-8.264-2.5-8.264-5.459v-3.176h16.529zm24.971 12.134h4.423c4.512 0 8.183 3.489 8.183 7.777v12.765c0 2.993-1.825 5.425-4.087 5.507-.791-12.669-4.041-20.749-8.519-26.049zm2.452-89.842a3.6 3.6 0 013.595-3.595c1.982 0 3.595 1.613 3.595 3.595s-1.613 3.595-3.595 3.595a3.6 3.6 0 01-3.595-3.595zm-73.175 3.595c-1.982 0-3.595-1.613-3.595-3.595s1.613-3.595 3.595-3.595c1.982 0 3.595 1.613 3.595 3.595s-1.613 3.595-3.595 3.595zM58.235 205.988h-.014l-10.614-.078a2.08 2.08 0 01-1.49-.637c-.395-.407-.605-.943-.591-1.578a2.11 2.11 0 012.1-2.054h.014l10.614.078c.57.004 1.102.233 1.497.643.396.411.604.952.584 1.591a2.09 2.09 0 01-2.1 2.035zm-2.46-6.964l-5.854-.043c1.014-24.931 8.594-41.517 20.123-44.392v6.823c-5.948 2.673-12.861 11.532-14.269 37.612zm110.462-38.323v-6.394l.115-.038c5.262-1.696 14.008-4.536 15.208-29.649l5.928.043c-.403 24.224-10.914 34.429-21.251 36.038z"/><path fill="#f8f8fa" d="M241.166 24.16H185.67c-7.339 0-13.311 5.972-13.311 13.313V63.03c-.801 10.697 4.5 15.068 9.282 15.593a2.708 2.708 0 012.406 2.7l.013 14.399c0 .451.316.643.452.706.135.06.489.173.828-.119l17.321-15.001a10.8 10.8 0 017.073-2.637h31.433c7.339 0 13.311-5.972 13.311-13.313V37.473c0-7.341-5.972-13.313-13.312-13.313zm-54.737 23.817h-5.322v2.637h4.84a1.338 1.338 0 110 2.678h-4.84v3.444h4.84a1.338 1.338 0 110 2.678h-6.179c-.74 0-1.339-.599-1.339-1.339V46.639c0-.74.599-1.339 1.339-1.339h6.661a1.338 1.338 0 110 2.677zm15.201 11.148a1.336 1.336 0 01-1.88-.222l-4.347-5.512h-1.592v4.683a1.338 1.338 0 11-2.678 0V46.335c0-.74.599-1.339 1.339-1.339h4.542a4.202 4.202 0 014.197 4.197 4.199 4.199 0 01-2.64 3.891l3.282 4.161a1.34 1.34 0 01-.223 1.88zm14.931 0a1.336 1.336 0 01-1.88-.222l-4.347-5.512h-1.592v4.683a1.338 1.338 0 11-2.678 0V46.335c0-.74.599-1.339 1.339-1.339h4.542a4.202 4.202 0 014.197 4.197 4.199 4.199 0 01-2.64 3.891l3.282 4.161a1.34 1.34 0 01-.223 1.88zm9.938.288c-3.587 0-6.505-3.233-6.505-7.207s2.918-7.207 6.505-7.207c3.587 0 6.505 3.233 6.505 7.207s-2.917 7.207-6.505 7.207zm21.318-.288a1.336 1.336 0 01-1.88-.222l-4.347-5.512h-1.592v4.683a1.338 1.338 0 11-2.678 0V46.335c0-.74.599-1.339 1.339-1.339h4.54a4.202 4.202 0 014.198 4.197 4.199 4.199 0 01-2.64 3.891l3.282 4.161a1.339 1.339 0 01-.222 1.88z"/><ellipse cx="226.499" cy="52.205" fill="#f8f8fa" rx="3.828" ry="4.53"/><path fill="#f8f8fa" d="M213.464 49.193a1.52 1.52 0 00-1.519-1.519h-3.203v3.04h3.203c.838 0 1.519-.683 1.519-1.521zM198.533 49.193a1.52 1.52 0 00-1.519-1.519h-3.203v3.04h3.203c.837 0 1.519-.683 1.519-1.521zM244.72 49.193c0-.838-.682-1.519-1.52-1.519h-3.202v3.04h3.202c.837 0 1.52-.683 1.52-1.521z"/><path fill="#0846ad" d="M241.166 21.483H185.67c-8.817 0-15.989 7.173-15.989 15.99l.004 25.457c-.88 11.699 5.224 17.649 11.684 18.397l.013 14.397c0 1.369.773 2.572 2.017 3.14a3.418 3.418 0 003.692-.53l17.321-15.001a8.128 8.128 0 015.321-1.983h31.433c8.817 0 15.989-7.173 15.989-15.99V37.473c0-8.817-7.172-15.99-15.989-15.99zm13.312 43.875c0 7.341-5.972 13.313-13.311 13.313h-31.433c-2.598 0-5.11.936-7.073 2.637L185.34 96.309a.759.759 0 01-.828.119.753.753 0 01-.452-.706l-.013-14.399a2.708 2.708 0 00-2.406-2.7c-4.782-.524-10.084-4.896-9.282-15.593V37.473c0-7.341 5.972-13.313 13.311-13.313h55.496c7.339 0 13.311 5.972 13.311 13.313v27.885z"/><path fill="#f8f8fa" d="M123.405 255.257h-10.112c-3.562 0-7.035-.966-10.358-2.796v10.05c.698 6.45 7.298 13.33 16.063 13.33 8.703 0 15.782-7.16 16.065-13.321l-.001-10.103a23.776 23.776 0 01-11.356 2.842l-.301-.002zm-7.591 14.269h-5.305a1.338 1.338 0 110-2.678h5.305a1.338 1.338 0 110 2.678zm0-6.337h-5.305a1.338 1.338 0 110-2.678h5.305a1.338 1.338 0 110 2.678zm11.672 6.337h-5.305a1.338 1.338 0 110-2.678h5.305a1.338 1.338 0 110 2.678zm1.339-7.676c0 .74-.599 1.339-1.339 1.339h-5.305a1.338 1.338 0 110-2.678h5.305c.74 0 1.339.599 1.339 1.339z"/><path fill="#0846ad" d="M115.814 266.848h-5.305a1.338 1.338 0 100 2.678h5.305a1.338 1.338 0 100-2.678zM127.486 266.848h-5.305a1.338 1.338 0 100 2.678h5.305a1.338 1.338 0 100-2.678zM115.814 260.511h-5.305a1.338 1.338 0 100 2.678h5.305a1.338 1.338 0 100-2.678zM120.842 261.85c0 .74.599 1.339 1.339 1.339h5.305a1.338 1.338 0 100-2.678h-5.305c-.74 0-1.339.599-1.339 1.339z"/><path fill="#f8f8fa" d="M58.253 201.72l-10.614-.078h-.014a2.111 2.111 0 00-2.1 2.054c-.014.635.196 1.171.591 1.578.395.407.924.633 1.49.637l10.614.078h.014c1.143 0 2.063-.89 2.1-2.034.02-.639-.188-1.181-.584-1.591a2.081 2.081 0 00-1.497-.644zM86.074 145.169h-5.172c-4.512 0-8.181 3.489-8.181 7.777v12.765c0 3.045 1.885 5.522 4.202 5.522h.082c.661-11.273 3.663-19.921 9.069-26.064zM163.56 165.712v-12.765c0-4.288-3.671-7.777-8.183-7.777h-4.423c4.478 5.3 7.728 13.379 8.518 26.049 2.263-.082 4.088-2.514 4.088-5.507z"/><path fill="#f8f8fa" d="M152.609 222.772c3.062-9.491 4.572-19.962 4.487-31.12l-.122-15.906c-.431-27.865-12.037-34.643-23.331-37.597-1.447-.379-3.172-.699-5.072-.953-.658 4.023-5.27 7.151-10.854 7.151-5.534 0-10.109-3.074-10.831-7.044-1.447.228-2.817.503-4.051.841-15.916 4.367-23.323 16.462-23.31 38.066l.041 14.699c.039 14.565 2.969 28.312 8.47 39.753 3.936 8.187 12.452 21.919 25.255 21.919h10.12c.093.004.192.001.286.001 16.782 0 25.313-18.65 28.912-29.81zm-60.394-36.39c0-10.042 6.413-18.211 14.296-18.211h23.998c7.883 0 14.296 8.17 14.296 18.211s-6.413 18.211-14.296 18.211h-23.998c-7.883.001-14.296-8.169-14.296-18.211z"/><path fill="#f8f8fa" d="M109.454 136.21c0 2.96 3.785 5.459 8.264 5.459 4.48 0 8.265-2.5 8.265-5.459v-3.176h-16.529v3.176zM106.511 201.916h23.998c6.406 0 11.618-6.968 11.618-15.534s-5.212-15.534-11.618-15.534h-23.998c-6.406 0-11.618 6.968-11.618 15.534s5.212 15.534 11.618 15.534zm5.171-20.575a1.338 1.338 0 111.893-1.893l5.041 5.042 5.041-5.042a1.338 1.338 0 111.893 1.893l-5.041 5.042 5.041 5.042a1.338 1.338 0 11-1.894 1.893l-5.041-5.042-5.041 5.042a1.337 1.337 0 11-1.894-1.893l5.041-5.042-5.039-5.042z"/><path fill="#0846ad" d="M130.509 204.594c7.883 0 14.296-8.17 14.296-18.211s-6.413-18.211-14.296-18.211h-23.998c-7.883 0-14.296 8.17-14.296 18.211s6.413 18.211 14.296 18.211h23.998zm-23.998-33.746h23.998c6.406 0 11.618 6.968 11.618 15.534s-5.212 15.534-11.618 15.534h-23.998c-6.406 0-11.618-6.968-11.618-15.534s5.212-15.534 11.618-15.534z"/><path fill="#f8f8fa" d="M88.053 120.259h60.52c9.09 0 10.999-8.613 10.999-15.839s-1.909-15.839-10.999-15.839h-60.52c-6.373 0-10.999 6.661-10.999 15.839 0 7.307 2.88 15.839 10.999 15.839zm38.535-3.171h-15.943c-.74 0-1.339-.599-1.339-1.339 0-4.472 4.176-8.111 9.31-8.111s9.311 3.638 9.311 8.111c0 .74-.599 1.339-1.339 1.339zm15.805-21.619c3.655 0 6.63 2.974 6.63 6.63s-2.974 6.63-6.63 6.63c-3.655 0-6.628-2.974-6.628-6.63s2.972-6.63 6.628-6.63zm-47.554 0c3.655 0 6.63 2.974 6.63 6.63s-2.974 6.63-6.63 6.63-6.63-2.974-6.63-6.63 2.975-6.63 6.63-6.63z"/><path fill="#f8f8fa" d="M90.036 130.357h56.553c12.548 0 22.756-11.635 22.756-25.936s-10.208-25.936-22.756-25.936H90.036c-12.548 0-22.756 11.635-22.756 25.936s10.208 25.936 22.756 25.936zm-1.983-44.452h60.52c8.819 0 13.676 6.576 13.676 18.516s-4.857 18.516-13.676 18.516h-60.52c-8.18 0-13.676-7.441-13.676-18.516-.001-10.73 5.75-18.516 13.676-18.516z"/><circle cx="94.839" cy="102.099" r="3.952" fill="#f8f8fa"/><path fill="#0846ad" d="M94.839 108.728c3.655 0 6.63-2.974 6.63-6.63s-2.974-6.63-6.63-6.63-6.63 2.974-6.63 6.63 2.975 6.63 6.63 6.63zm3.952-6.629a3.957 3.957 0 01-3.952 3.952c-2.179 0-3.952-1.773-3.952-3.952s1.773-3.952 3.952-3.952a3.956 3.956 0 013.952 3.952z"/><circle cx="142.393" cy="102.099" r="3.952" fill="#f8f8fa"/><path fill="#0846ad" d="M142.393 108.728c3.655 0 6.63-2.974 6.63-6.63s-2.974-6.63-6.63-6.63c-3.655 0-6.628 2.974-6.628 6.63s2.972 6.63 6.628 6.63zm0-10.581c2.179 0 3.952 1.773 3.952 3.952s-1.773 3.952-3.952 3.952c-2.178 0-3.951-1.773-3.951-3.952s1.772-3.952 3.951-3.952z"/><path fill="#f8f8fa" d="M118.616 110.315c-3.093 0-5.699 1.744-6.428 4.095h12.858c-.73-2.351-3.336-4.095-6.43-4.095z"/><path fill="#0846ad" d="M118.616 107.638c-5.134 0-9.31 3.638-9.31 8.111 0 .74.599 1.339 1.339 1.339h15.943c.74 0 1.339-.599 1.339-1.339 0-4.473-4.177-8.111-9.311-8.111zm-6.428 6.772c.729-2.351 3.335-4.095 6.428-4.095 3.094 0 5.7 1.744 6.43 4.095h-12.858z"/><path fill="#0846ad" d="M88.053 122.937h60.52c8.819 0 13.676-6.576 13.676-18.516s-4.857-18.516-13.676-18.516h-60.52c-7.925 0-13.676 7.787-13.676 18.516-.001 11.074 5.496 18.516 13.676 18.516zm0-34.355h60.52c9.09 0 10.999 8.613 10.999 15.839s-1.909 15.839-10.999 15.839h-60.52c-8.119 0-10.999-8.532-10.999-15.839 0-9.178 4.625-15.839 10.999-15.839z"/><path fill="#0846ad" d="M111.682 193.318a1.337 1.337 0 001.894 0l5.041-5.042 5.041 5.042a1.337 1.337 0 101.894-1.893l-5.041-5.042 5.041-5.042a1.338 1.338 0 10-1.893-1.893l-5.041 5.042-5.041-5.042a1.338 1.338 0 10-1.893 1.893l5.041 5.042-5.041 5.042a1.336 1.336 0 00-.002 1.893zM226.499 44.998c-3.587 0-6.505 3.233-6.505 7.207s2.918 7.207 6.505 7.207c3.587 0 6.505-3.233 6.505-7.207s-2.917-7.207-6.505-7.207zm0 11.737c-2.11 0-3.828-2.032-3.828-4.53s1.718-4.53 3.828-4.53 3.828 2.032 3.828 4.53-1.718 4.53-3.828 4.53zM186.429 45.3h-6.661c-.74 0-1.339.599-1.339 1.339v11.435c0 .74.599 1.339 1.339 1.339h6.179a1.338 1.338 0 100-2.678h-4.84v-3.444h4.84a1.338 1.338 0 100-2.678h-4.84v-2.637h5.322a1.338 1.338 0 100-2.676zM198.57 53.084a4.198 4.198 0 002.64-3.891 4.202 4.202 0 00-4.197-4.197h-4.542c-.74 0-1.339.599-1.339 1.339v11.739a1.338 1.338 0 102.678 0v-4.683h1.592l4.347 5.512a1.336 1.336 0 001.88.222c.58-.458.68-1.3.222-1.88l-3.281-4.161zm-4.76-5.41h3.203a1.52 1.52 0 010 3.039h-3.203v-3.039zM213.502 53.084a4.198 4.198 0 002.64-3.891 4.202 4.202 0 00-4.197-4.197h-4.542c-.74 0-1.339.599-1.339 1.339v11.739a1.338 1.338 0 102.678 0v-4.683h1.592l4.347 5.512a1.336 1.336 0 001.88.222c.58-.458.68-1.3.222-1.88l-3.281-4.161zm-4.76-5.41h3.203a1.52 1.52 0 010 3.039h-3.203v-3.039zM244.758 53.084a4.198 4.198 0 002.64-3.891 4.202 4.202 0 00-4.198-4.197h-4.54c-.74 0-1.339.599-1.339 1.339v11.739a1.338 1.338 0 102.678 0v-4.683h1.592l4.347 5.512a1.336 1.336 0 001.88.222c.58-.458.68-1.3.222-1.88l-3.282-4.161zm-4.76-5.41h3.202c.838 0 1.52.681 1.52 1.519s-.682 1.52-1.52 1.52h-3.202v-3.039z"/></svg>
