<svg xmlns="http://www.w3.org/2000/svg" fill-rule="evenodd" clip-rule="evenodd" image-rendering="optimizeQuality" shape-rendering="geometricPrecision" text-rendering="geometricPrecision" viewBox="0 0 4335 4335"><g><path fill-rule="nonzero" d="M1482 2942l203-35V1416l-203-34v-160h415l23 166c45-62 100-109 165-142s140-49 226-49c168 0 299 67 391 200 93 133 140 310 140 529v26c0 195-47 354-140 474-94 120-223 180-387 180-84 0-158-15-221-43s-117-71-162-126v470l203 35v160h-653v-160zm450-707c31 56 72 99 121 129 50 31 112 46 185 46 117 0 207-42 267-128 60-85 90-195 90-331v-27c0-154-30-280-90-379s-150-148-270-148c-70 0-131 16-181 48-50 31-91 75-122 130v660z"/><path d="M464 87h3396c201 0 365 163 365 364v3397c0 200-164 364-365 364H464c-201 0-365-164-365-364V451C99 250 263 87 464 87zm155 188h3087c182 0 331 149 331 331v3087c0 182-149 331-331 331H619c-182 0-331-149-331-331V606c0-182 149-331 331-331z"/></g></svg>
